<svg xmlns="http://www.w3.org/2000/svg" width="45" height="74" viewBox="0 0 45 74"><g><g><g><path fill="none" stroke="#bf628d" stroke-linecap="round" stroke-linejoin="round" stroke-miterlimit="50" d="M44.089 4.485A3.485 3.485 0 0 0 40.604 1h-29.6A3.485 3.485 0 0 0 7.52 4.485v19.03a3.485 3.485 0 0 0 3.485 3.484h7.833v5.213a1.44 1.44 0 0 0 2.47 1.022L27.543 27v0h13.061a3.485 3.485 0 0 0 3.485-3.485z"/></g><g><path fill="none" stroke="#bf628d" stroke-linecap="round" stroke-linejoin="round" stroke-miterlimit="50" d="M18.19 48.957v0h-1.16v0-14.998a2.06 2.06 0 0 0-4.118 0v9.785a2.06 2.06 0 0 0-4.118 0v.77a2.06 2.06 0 0 0-4.118 0v1.03a2.066 2.066 0 0 0-4.126 0v6.574c0 5.313 2.066 6.242 2.066 9.273v4.119h11.837v0a3.146 3.146 0 0 1 1.224-2.484l2.88-2.16a6.818 6.818 0 0 0 2.736-5.307v-3.513a3.089 3.089 0 0 0-3.103-3.09z"/></g><g><path fill="none" stroke="#bf628d" stroke-linecap="round" stroke-linejoin="round" stroke-miterlimit="50" d="M11.81 50.985a2.066 2.066 0 0 1 1.108-1.793V43.75a2.06 2.06 0 0 0-4.118 0v5.407a2.06 2.06 0 0 0 2.06 2.06c.33.003.657-.076.95-.23z"/></g><g><path fill="none" stroke="#bf628d" stroke-linecap="round" stroke-linejoin="round" stroke-miterlimit="50" d="M6.74 52.368a2.06 2.06 0 0 1-2.06-2.059v-5.76a2.06 2.06 0 0 1 4.118 0v5.76a2.06 2.06 0 0 1-2.059 2.06z"/></g><g><path fill="none" stroke="#bf628d" stroke-linecap="round" stroke-linejoin="round" stroke-miterlimit="50" d="M2.616 51.73A2.06 2.06 0 0 1 .55 49.67v-4.126a2.066 2.066 0 0 1 4.126 0v4.126a2.06 2.06 0 0 1-2.06 2.06z"/></g><g><path fill="none" stroke="#bf628d" stroke-linecap="round" stroke-linejoin="round" stroke-miterlimit="50" d="M17.32 53.06h1.08"/></g><g><path fill="none" stroke="#bf628d" stroke-linecap="round" stroke-linejoin="round" stroke-miterlimit="50" d="M16.556 72.996v0-3.37c0-.569-.46-1.032-1.03-1.036H1.58c-.57.004-1.03.467-1.03 1.037v3.017"/></g><g><path fill="none" stroke="#bf628d" stroke-linecap="round" stroke-linejoin="round" stroke-miterlimit="50" d="M15.49 68.593v0-2.073a1.03 1.03 0 0 0-1.03-1.03H2.618c-.57 0-1.033.46-1.037 1.03v2.059z"/></g><g><path fill="none" stroke="#bf628d" stroke-linecap="round" stroke-linejoin="round" stroke-miterlimit="50" d="M17.039 48.96v0h-3.175a2.052 2.052 0 1 0 0 4.104h3.456a7.02 7.02 0 0 0-6.97 6.797v1.54"/></g><g><path fill="none" stroke="#bf628d" stroke-linecap="round" stroke-linejoin="round" stroke-miterlimit="50" d="M29.22 17.56a7.855 7.855 0 0 0 3.672 1.354"/></g><g><path fill="none" stroke="#bf628d" stroke-linecap="round" stroke-linejoin="round" stroke-miterlimit="50" d="M25.83 11.35a7.43 7.43 0 0 1-7.2 7.157"/></g><g><path fill="none" stroke="#bf628d" stroke-linecap="round" stroke-linejoin="round" stroke-miterlimit="50" d="M19.947 20.853a9.547 9.547 0 0 0 8.208-9.555 2.318 2.318 0 1 0-4.637 0c0 2.73-2.405 4.738-5.148 4.738"/></g><g><path fill="none" stroke="#bf628d" stroke-linecap="round" stroke-linejoin="round" stroke-miterlimit="50" d="M30.24 15.19a5.378 5.378 0 0 0 3.06 1.246"/></g><g><path fill="none" stroke="#bf628d" stroke-linecap="round" stroke-linejoin="round" stroke-miterlimit="50" d="M27.85 19.37a9.82 9.82 0 0 0 3.982 1.505"/></g><g><path fill="none" stroke="#bf628d" stroke-linecap="round" stroke-linejoin="round" stroke-miterlimit="50" d="M25.92 21.04a12.434 12.434 0 0 0 3.6 1.836"/></g><g><path fill="none" stroke="#bf628d" stroke-linecap="round" stroke-linejoin="round" stroke-miterlimit="50" d="M25.32 23.66h1.03"/></g><g><path fill="none" stroke="#bf628d" stroke-linecap="round" stroke-linejoin="round" stroke-miterlimit="50" d="M18.37 13.568c1.231 0 2.376-.576 2.57-1.75a5.12 5.12 0 0 1 4.896-5.148v0a5.12 5.12 0 0 1 4.89 5.134c0 5.53-3.6 9.49-8.64 11.066"/></g><g><path fill="none" stroke="#bf628d" stroke-linecap="round" stroke-linejoin="round" stroke-miterlimit="50" d="M33.303 16.438v0-4.637a7.69 7.69 0 0 0-7.467-7.711v0a7.69 7.69 0 0 0-7.466 7.711v1.75"/></g></g></g></svg>