<svg xmlns="http://www.w3.org/2000/svg" width="77" height="74" viewBox="0 0 77 74"><g><g><g><path fill="none" stroke="#5e7cff" stroke-linecap="round" stroke-miterlimit="50" d="M30.96 38.185a12.6 12.6 0 0 1 9.385.167"/></g><g><path fill="none" stroke="#5e7cff" stroke-linecap="round" stroke-miterlimit="50" d="M23.877 54.832a12.558 12.558 0 0 1 0-9.762"/></g><g><path fill="none" stroke="#5e7cff" stroke-linecap="round" stroke-miterlimit="50" d="M40.347 61.5a12.558 12.558 0 0 1-9.737 0"/></g><g><path fill="none" stroke="#5e7cff" stroke-linecap="round" stroke-miterlimit="50" d="M47.05 45.07a12.56 12.56 0 0 1 0 9.753"/></g><g><path fill="none" stroke="#5e7cff" stroke-linecap="round" stroke-linejoin="round" stroke-miterlimit="50" d="M35.442 53.513a3.592 3.592 0 1 0 0-7.183 3.592 3.592 0 0 0 0 7.183z"/></g><g><path fill="none" stroke="#5e7cff" stroke-linecap="round" stroke-linejoin="round" stroke-miterlimit="50" d="M21.734 55.741l4.429-1.875c.557-.235.849-.852.678-1.432a8.958 8.958 0 0 1 0-4.964 1.189 1.189 0 0 0-.72-1.44l-4.429-1.876a1.206 1.206 0 0 0-1.616.745 16.208 16.208 0 0 0 0 10.097 1.206 1.206 0 0 0 1.658.745z"/></g><g><path fill="none" stroke="#5e7cff" stroke-linecap="round" stroke-linejoin="round" stroke-miterlimit="50" d="M29.655 36.233v0l1.876 4.43c.235.557.851.848 1.431.677a8.941 8.941 0 0 1 4.965 0c.58.171 1.196-.12 1.431-.678l1.876-4.429a1.206 1.206 0 0 0-.745-1.615 16.183 16.183 0 0 0-10.097 0 1.206 1.206 0 0 0-.737 1.615z"/></g><g><path fill="none" stroke="#5e7cff" stroke-linecap="round" stroke-linejoin="round" stroke-miterlimit="50" d="M50.398 55.582c-.341.273-.804.337-1.206.168l-2.185-.921v0l-2.252-.955a1.189 1.189 0 0 1-.678-1.423 8.95 8.95 0 0 0 0-4.973 1.206 1.206 0 0 1 .67-1.432l2.302-.98v0l2.126-.895a1.18 1.18 0 0 1 1.223.193"/></g><g><path fill="none" stroke="#5e7cff" stroke-linecap="round" stroke-linejoin="round" stroke-miterlimit="50" d="M41.231 63.676v0l-1.875-4.43a1.189 1.189 0 0 0-1.432-.677 8.992 8.992 0 0 1-4.973 0 1.189 1.189 0 0 0-1.431.678l-1.876 4.429a1.206 1.206 0 0 0 .745 1.616 16.208 16.208 0 0 0 10.097 0 1.206 1.206 0 0 0 .745-1.616z"/></g><g><path fill="none" stroke="#5e7cff" stroke-linecap="round" stroke-linejoin="round" stroke-miterlimit="50" d="M35.439 71.448c-11.89 0-21.529-9.64-21.529-21.53S23.549 28.39 35.439 28.39"/></g><g><path fill="none" stroke="#5e7cff" stroke-linecap="round" stroke-linejoin="round" stroke-miterlimit="50" d="M57.689 10.452V7.58"/></g><g><path fill="none" stroke="#5e7cff" stroke-linecap="round" stroke-linejoin="round" stroke-miterlimit="50" d="M56.26 9.009h2.872"/></g><g><path fill="none" stroke="#5e7cff" stroke-linecap="round" stroke-linejoin="round" stroke-miterlimit="50" d="M17.499 10.452V7.58"/></g><g><path fill="none" stroke="#5e7cff" stroke-linecap="round" stroke-linejoin="round" stroke-miterlimit="50" d="M16.07 9.009h2.872"/></g><g><path fill="none" stroke="#5e7cff" stroke-linecap="round" stroke-linejoin="round" stroke-miterlimit="50" d="M2.429 35.572V32.7"/></g><g><path fill="none" stroke="#5e7cff" stroke-linecap="round" stroke-linejoin="round" stroke-miterlimit="50" d="M1 34.129h2.872"/></g><g><path fill="none" stroke="#5e7cff" stroke-linecap="round" stroke-linejoin="round" stroke-miterlimit="50" d="M46.929 25.523V19.78"/></g><g><path fill="none" stroke="#5e7cff" stroke-linecap="round" stroke-linejoin="round" stroke-miterlimit="50" d="M44.06 22.649h5.743"/></g><g><path fill="none" stroke="#5e7cff" stroke-linecap="round" stroke-linejoin="round" stroke-miterlimit="50" d="M53.38 64.989h11.487"/></g><g><path fill="none" stroke="#5e7cff" stroke-linecap="round" stroke-linejoin="round" stroke-miterlimit="50" d="M53.38 54.939h11.487"/></g><g><path fill="none" stroke="#5e7cff" stroke-linecap="round" stroke-linejoin="round" stroke-miterlimit="50" d="M53.38 44.899h11.487"/></g><g><path fill="none" stroke="#5e7cff" stroke-linecap="round" stroke-linejoin="round" stroke-miterlimit="50" d="M70.603 37.72a5.743 5.743 0 0 0-5.743 5.743v3.584h10.29a1.197 1.197 0 0 0 1.197-1.198v-2.394a5.743 5.743 0 0 0-5.744-5.735z"/></g><g><path fill="none" stroke="#5e7cff" stroke-linecap="round" stroke-linejoin="round" stroke-miterlimit="50" d="M64.875 37.718v0H59.13a5.743 5.743 0 0 0-5.743 5.744v23.676h-10.28c-.662 0-1.198.536-1.198 1.197v.243c0 3.173 2.57 4.303 5.743 4.303h11.478a5.743 5.743 0 0 0 5.744-5.743V43.453a5.743 5.743 0 0 1 5.743-5.743z"/></g><g><path fill="none" stroke="#5e7cff" stroke-linecap="round" stroke-linejoin="round" stroke-miterlimit="50" d="M53.388 67.14v0h-10.28c-.662 0-1.198.536-1.198 1.197v.243c0 3.173 2.57 4.303 5.743 4.303h11.478a5.743 5.743 0 0 1-5.743-5.743z"/></g><g><path fill="none" stroke="#5e7cff" stroke-linecap="round" stroke-linejoin="round" stroke-miterlimit="50" d="M33.777 1.332a1.792 1.792 0 0 0-2.637 1.582v15.07a1.792 1.792 0 0 0 2.637 1.583l14.124-7.535a1.792 1.792 0 0 0 0-3.165z"/></g><g><path fill="none" stroke="#5e7cff" stroke-linecap="round" stroke-linejoin="round" stroke-miterlimit="50" d="M64.036 29.824v0h-2.872a.594.594 0 0 1-.594-.595v-8.975c0-.328.266-.594.594-.594h2.872c.328 0 .594.266.594.594v8.967a.594.594 0 0 1-.594.603z"/></g><g><path fill="none" stroke="#5e7cff" stroke-linecap="round" stroke-linejoin="round" stroke-miterlimit="50" d="M72.166 29.824v0h-2.872a.594.594 0 0 1-.594-.595v-8.975c0-.328.266-.594.594-.594h2.872c.328 0 .594.266.594.594v8.967a.594.594 0 0 1-.594.603z"/></g><g><path fill="none" stroke="#5e7cff" stroke-linecap="round" stroke-linejoin="round" stroke-miterlimit="50" d="M16.596 25.744a3.851 3.851 0 1 1-7.69.455 3.851 3.851 0 0 1 7.69-.455z"/></g><g><path fill="none" stroke="#5e7cff" stroke-linecap="round" stroke-linejoin="round" stroke-miterlimit="50" d="M39.325 71.079c-1.281.241-2.582.362-3.885.36"/></g><g><path fill="none" stroke="#5e7cff" stroke-linecap="round" stroke-linejoin="round" stroke-miterlimit="50" d="M42.304 70.329h-.05"/></g><g><path fill="none" stroke="#5e7cff" stroke-linecap="round" stroke-linejoin="round" stroke-miterlimit="50" d="M35.44 28.39a21.474 21.474 0 0 1 17.464 8.95"/></g></g></g></svg>