<svg xmlns="http://www.w3.org/2000/svg" width="70" height="74" viewBox="0 0 70 74"><g><g><g><path fill="none" stroke="#825a9f" stroke-linecap="round" stroke-linejoin="round" stroke-miterlimit="50" d="M19.8 72.495l-1.14-.24"/></g><g><path fill="none" stroke="#825a9f" stroke-dasharray="1.97 1.97" stroke-linecap="round" stroke-linejoin="round" stroke-miterlimit="50" d="M15.351 71.26C-8.206 62.725.246 30.25 19.101 37.622a4.777 4.777 0 0 1 2.82 3.406 5.16 5.16 0 0 1-.952 4.297c-1.905 2.558-5.588 3.3-8.558 2.025-12.397-5.31-3.51-27.21 11.663-30.3"/></g><g><path fill="none" stroke="#825a9f" stroke-linecap="round" stroke-linejoin="round" stroke-miterlimit="50" d="M25.75 16.746c.39-.037.75-.067 1.163-.082"/></g><g><path fill="none" stroke="#825a9f" stroke-linecap="round" stroke-linejoin="round" stroke-miterlimit="50" d="M23.205 3.697a1.305 1.305 0 0 1 1.05-2.175l43.05 3.413a1.305 1.305 0 0 1 .645 2.37L32.7 32.16c-.45.318-1.051.318-1.5 0a1.312 1.312 0 0 1-.57-1.35l2.947-14.79c.077-.404-.04-.82-.315-1.125z"/></g><g><path fill="none" stroke="#825a9f" stroke-linecap="round" stroke-linejoin="round" stroke-miterlimit="50" d="M33.582 16.045l-2.948 14.79a1.312 1.312 0 0 0 .57 1.35c.45.318 1.051.318 1.5 0L67.954 7.33c.45-.316.654-.88.51-1.41L33.56 15.445c.053.196.06.4.023.6z"/></g></g></g></svg>